<?xml version="1.0" encoding="UTF-8"?>
<svg width="1200pt" height="1200pt" version="1.1" viewBox="0 0 1200 1200" xmlns="http://www.w3.org/2000/svg">
 <path d="m603.66 10.922c-224.26 0-406.08 183-406.08 406.03-2.4375 246.05 124.82 387.89 259.4 579.37 44.859 61.828 89.719 113.95 132.14 184.26 2.4375 4.8281 7.2656 7.2656 14.531 7.2656 4.8281 0 9.7031-2.4375 14.531-7.2656 42.422-67.875 88.5-121.22 133.31-185.44 133.31-190.31 264.24-332.11 258.19-575.76 0-225.47-181.82-408.47-406.03-408.47zm0 568.45c-88.5 0-162.42-72.75-162.42-162.42 0-89.719 72.75-162.42 162.42-162.42 89.719 0 162.42 72.75 162.42 162.42 0 89.719-73.969 162.42-162.42 162.42z" fill="#cd0909"/>
</svg>
